<?xml version="1.0" standalone="no"?>
<!DOCTYPE svg PUBLIC "-//W3C//DTD SVG 20010904//EN"
 "http://www.w3.org/TR/2001/REC-SVG-20010904/DTD/svg10.dtd">
<svg version="1.0" xmlns="http://www.w3.org/2000/svg"
 width="200.000000pt" height="200.000000pt" viewBox="0 0 200.000000 200.000000"
 preserveAspectRatio="xMidYMid meet">
<metadata>
Created by potrace 1.14, written by Peter Selinger 2001-2017
</metadata>
<g transform="translate(0.000000,200.000000) scale(0.100000,-0.100000)"
fill="#000000" stroke="none">
<path d="M444 1116 c-19 -19 -34 -41 -34 -50 0 -13 -6 -12 -27 9 -33 30 -49
32 -56 5 -8 -31 24 -85 53 -87 24 -3 24 -2 3 7 -26 11 -45 44 -41 72 3 19 4
19 28 -5 14 -14 32 -35 41 -48 l17 -24 -5 29 c-7 37 20 90 54 105 31 14 43 7
43 -28 0 -68 -19 -91 -92 -115 -14 -4 -18 -16 -16 -53 l1 -48 6 44 c5 40 10
46 37 53 50 13 69 42 71 109 2 57 1 59 -24 59 -15 0 -38 -13 -59 -34z"/>
<path d="M461 1076 c-12 -18 -21 -40 -21 -47 1 -8 8 0 17 16 8 17 22 38 31 48
8 9 10 17 4 17 -6 0 -20 -15 -31 -34z"/>
<path d="M597 1083 c-23 -26 -67 -118 -67 -140 0 -64 58 -65 114 -3 l35 39 -4
-30 c-4 -30 16 -59 39 -59 24 0 81 45 96 75 11 23 21 29 39 27 16 -3 22 0 19
10 -3 7 -13 12 -22 12 -9 -1 -17 4 -17 12 -5 50 -26 76 -61 72 -17 -2 -33 -9
-36 -16 -2 -7 0 -12 5 -10 17 5 51 -23 61 -49 16 -49 -16 -95 -61 -87 -26 4
-30 9 -36 55 l-6 41 -32 -46 c-54 -77 -111 -55 -82 32 7 20 19 47 27 60 17 26
11 29 -11 5z"/>
<path d="M932 1067 c-15 -18 -26 -58 -27 -97 -1 -28 -6 -36 -23 -38 -16 -2
-25 3 -31 20 l-9 23 -7 -27 c-4 -15 -4 -32 0 -37 8 -14 41 -14 65 -1 10 6 21
6 24 2 3 -5 65 -8 138 -7 73 0 138 -3 144 -7 6 -4 26 4 45 18 33 24 34 24 37
5 4 -22 36 -29 47 -11 4 6 12 4 21 -5 10 -10 21 -12 32 -7 9 5 49 7 89 5 64
-2 75 0 94 20 l22 22 -6 -22 c-5 -22 8 -34 29 -26 7 2 10 13 7 24 -4 14 -1 18
9 14 16 -6 44 20 31 28 -19 12 -74 0 -93 -20 -12 -13 -27 -20 -36 -16 -13 5
-12 9 6 28 19 20 18 35 -2 35 -4 0 -20 -13 -35 -30 -43 -48 -82 -33 -67 26 6
23 16 28 78 38 31 5 43 13 34 21 -3 3 -25 1 -49 -4 -36 -8 -45 -7 -55 7 -11
15 -13 14 -23 -10 -6 -17 -20 -28 -40 -33 -17 -4 -29 -11 -26 -15 3 -5 16 -5
30 0 24 9 25 8 25 -25 0 -34 -17 -56 -29 -38 -3 6 -15 10 -26 9 -11 0 -20 4
-20 9 0 6 10 9 23 7 12 -1 22 2 22 7 0 16 -24 19 -51 5 -24 -12 -29 -11 -44 6
-14 15 -21 17 -32 9 -7 -7 -11 -20 -8 -30 7 -20 -9 -26 -20 -9 -4 7 -12 7 -25
0 -13 -7 -21 -6 -29 4 -6 7 -8 16 -4 19 3 4 1 7 -5 7 -6 0 -17 -10 -23 -22
-16 -31 -15 -31 -37 -19 -19 10 -19 14 -7 53 12 43 12 74 0 86 -10 10 -34 -28
-41 -65 -3 -18 -12 -33 -19 -33 -6 0 -20 -9 -30 -20 -36 -40 -85 -15 -60 30
26 46 14 121 -13 87z m18 -36 c0 -25 -10 -51 -20 -51 -4 0 -6 10 -5 23 1 12 3
28 4 35 2 20 21 14 21 -7z m131 -54 c-8 -8 -11 -1 -11 24 0 46 14 60 18 19 2
-18 -1 -37 -7 -43z m449 -17 c0 -5 -5 -10 -11 -10 -5 0 -7 5 -4 10 3 6 8 10
11 10 2 0 4 -4 4 -10z m-480 -15 c0 -8 -4 -15 -10 -15 -5 0 -10 7 -10 15 0 8
5 15 10 15 6 0 10 -7 10 -15z"/>
<path d="M350 1053 c0 -13 29 -38 35 -31 3 3 -4 13 -15 23 -11 10 -20 13 -20
8z"/>
</g>
</svg>
